<svg width="782" height="541" viewBox="0 0 782 541" fill="none" xmlns="http://www.w3.org/2000/svg">
<g opacity="0.4" filter="url(#filter0_f_68_276)">
<ellipse cx="152.83" cy="269.018" rx="152.83" ry="269.018" transform="matrix(1 -1.64551e-07 -1.64551e-07 -1 62.5 951.037)" fill="url(#paint0_linear_68_276)"/>
</g>
<g opacity="0.6" filter="url(#filter1_f_68_276)" style="mix-blend-mode:plus-lighter">
<path d="M71.9562 741.03C160.849 530.757 199.935 239.041 208.367 119.467C198.972 533.401 32.2079 968.606 -49.9998 1134.47C-46.3863 1090.94 -16.9362 951.304 71.9562 741.03Z" fill="url(#paint1_linear_68_276)"/>
</g>
<g opacity="0.3" filter="url(#filter2_f_68_276)">
<path d="M196.491 217.136C194.082 326.74 182.257 599.492 154.222 813.664C171.804 739.237 204.873 515.733 196.491 217.136Z" fill="url(#paint2_linear_68_276)"/>
</g>
<g opacity="0.6" filter="url(#filter3_f_68_276)">
<path d="M187.291 365.892C167.282 514.596 99.5152 821.864 -11.4808 861.304C48.1866 927.036 171.475 919.978 187.291 365.892Z" fill="url(#paint3_linear_68_276)"/>
</g>
<g filter="url(#filter4_f_68_276)" style="mix-blend-mode:screen">
<path d="M184.742 99.9916C184.674 98.4825 184.607 96.9741 184.541 95.4665C184.421 102.066 184.208 109.209 183.905 116.837C169.891 377.323 106.33 655.34 86.2089 716.215C82.4534 721.051 78.7089 737.072 75 737.072L294.485 737.072C290.776 737.072 287.032 721.05 283.276 716.215C263.155 655.34 199.594 377.323 185.58 116.837C185.277 109.209 185.064 102.066 184.943 95.4665C184.878 96.9741 184.811 98.4825 184.742 99.9916Z" fill="url(#paint4_linear_68_276)"/>
</g>
<g opacity="0.4" filter="url(#filter5_f_68_276)" style="mix-blend-mode:screen">
<path d="M185 66.2979C184.939 64.6867 184.879 63.0763 184.82 61.4668C184.713 68.5127 184.522 76.1382 184.252 84.2826C171.738 362.386 114.978 659.207 97.0096 724.199C93.6559 729.361 90.3121 746.467 87 746.467L283 746.467C279.688 746.467 276.344 729.361 272.991 724.199C255.023 659.207 198.262 362.386 185.748 84.2826C185.478 76.1382 185.287 68.5127 185.18 61.4668C185.121 63.0763 185.061 64.6867 185 66.2979Z" fill="url(#paint5_linear_68_276)"/>
</g>
<g filter="url(#filter6_f_68_276)" style="mix-blend-mode:plus-lighter">
<ellipse cx="81.9688" cy="75.2783" rx="81.9688" ry="75.2783" transform="matrix(1 -1.64551e-07 -1.64551e-07 -1 133.363 839.352)" fill="url(#paint6_linear_68_276)"/>
</g>
<defs>
<filter id="filter0_f_68_276" x="-350.5" y="0" width="1131.66" height="1364.04" filterUnits="userSpaceOnUse" color-interpolation-filters="sRGB">
<feFlood flood-opacity="0" result="BackgroundImageFix"/>
<feBlend mode="normal" in="SourceGraphic" in2="BackgroundImageFix" result="shape"/>
<feGaussianBlur stdDeviation="206.5" result="effect1_foregroundBlur_68_276"/>
</filter>
<filter id="filter1_f_68_276" x="-94.7" y="74.7668" width="347.767" height="1104.4" filterUnits="userSpaceOnUse" color-interpolation-filters="sRGB">
<feFlood flood-opacity="0" result="BackgroundImageFix"/>
<feBlend mode="normal" in="SourceGraphic" in2="BackgroundImageFix" result="shape"/>
<feGaussianBlur stdDeviation="22.35" result="effect1_foregroundBlur_68_276"/>
</filter>
<filter id="filter2_f_68_276" x="126.423" y="189.337" width="99.2055" height="652.127" filterUnits="userSpaceOnUse" color-interpolation-filters="sRGB">
<feFlood flood-opacity="0" result="BackgroundImageFix"/>
<feBlend mode="normal" in="SourceGraphic" in2="BackgroundImageFix" result="shape"/>
<feGaussianBlur stdDeviation="13.9" result="effect1_foregroundBlur_68_276"/>
</filter>
<filter id="filter3_f_68_276" x="-83.3805" y="293.993" width="342.571" height="667.452" filterUnits="userSpaceOnUse" color-interpolation-filters="sRGB">
<feFlood flood-opacity="0" result="BackgroundImageFix"/>
<feBlend mode="normal" in="SourceGraphic" in2="BackgroundImageFix" result="shape"/>
<feGaussianBlur stdDeviation="35.95" result="effect1_foregroundBlur_68_276"/>
</filter>
<filter id="filter4_f_68_276" x="21.2" y="41.6668" width="327.084" height="749.205" filterUnits="userSpaceOnUse" color-interpolation-filters="sRGB">
<feFlood flood-opacity="0" result="BackgroundImageFix"/>
<feBlend mode="normal" in="SourceGraphic" in2="BackgroundImageFix" result="shape"/>
<feGaussianBlur stdDeviation="26.9" result="effect1_foregroundBlur_68_276"/>
</filter>
<filter id="filter5_f_68_276" x="47" y="21.4668" width="276" height="765" filterUnits="userSpaceOnUse" color-interpolation-filters="sRGB">
<feFlood flood-opacity="0" result="BackgroundImageFix"/>
<feBlend mode="normal" in="SourceGraphic" in2="BackgroundImageFix" result="shape"/>
<feGaussianBlur stdDeviation="20" result="effect1_foregroundBlur_68_276"/>
</filter>
<filter id="filter6_f_68_276" x="-91.9367" y="463.495" width="614.538" height="601.157" filterUnits="userSpaceOnUse" color-interpolation-filters="sRGB">
<feFlood flood-opacity="0" result="BackgroundImageFix"/>
<feBlend mode="normal" in="SourceGraphic" in2="BackgroundImageFix" result="shape"/>
<feGaussianBlur stdDeviation="112.65" result="effect1_foregroundBlur_68_276"/>
</filter>
<linearGradient id="paint0_linear_68_276" x1="152.83" y1="538.037" x2="152.83" y2="0" gradientUnits="userSpaceOnUse">
<stop stop-color="#3A8BBD"/>
<stop offset="1" stop-color="#A9EDFB"/>
</linearGradient>
<linearGradient id="paint1_linear_68_276" x1="79.1835" y1="119.467" x2="79.1836" y2="1134.47" gradientUnits="userSpaceOnUse">
<stop stop-color="#3A8BBD"/>
<stop offset="1" stop-color="#A9EDFB"/>
</linearGradient>
<linearGradient id="paint2_linear_68_276" x1="176.025" y1="217.136" x2="176.025" y2="813.664" gradientUnits="userSpaceOnUse">
<stop stop-color="#3A8BBD"/>
<stop offset="1" stop-color="#A9EDFB"/>
</linearGradient>
<linearGradient id="paint3_linear_68_276" x1="87.905" y1="365.892" x2="87.905" y2="889.545" gradientUnits="userSpaceOnUse">
<stop stop-color="#3A8BBD"/>
<stop offset="1" stop-color="#A9EDFB"/>
</linearGradient>
<linearGradient id="paint4_linear_68_276" x1="184.742" y1="95.4665" x2="184.742" y2="737.072" gradientUnits="userSpaceOnUse">
<stop stop-color="#3A8BBD"/>
<stop offset="1" stop-color="#A9EDFB"/>
</linearGradient>
<linearGradient id="paint5_linear_68_276" x1="185" y1="61.4668" x2="185" y2="746.467" gradientUnits="userSpaceOnUse">
<stop stop-color="#3A8BBD"/>
<stop offset="1" stop-color="#A9EDFB"/>
</linearGradient>
<linearGradient id="paint6_linear_68_276" x1="81.9688" y1="150.557" x2="81.9688" y2="0" gradientUnits="userSpaceOnUse">
<stop stop-color="#3A8BBD"/>
<stop offset="1" stop-color="#A9EDFB"/>
</linearGradient>
</defs>
</svg>
